<?xml version="1.0" encoding="UTF-8"?>
<!DOCTYPE svg PUBLIC "-//W3C//DTD SVG 1.1//EN" "http://www.w3.org/Graphics/SVG/1.1/DTD/svg11.dtd">
<svg xmlns="http://www.w3.org/2000/svg" version="1.1" width="500px" height="500px" style="shape-rendering:geometricPrecision; text-rendering:geometricPrecision; image-rendering:optimizeQuality; fill-rule:evenodd; clip-rule:evenodd" xmlns:xlink="http://www.w3.org/1999/xlink">
<g><path style="opacity:1" fill="#000000" d="M -0.5,-0.5 C 166.167,-0.5 332.833,-0.5 499.5,-0.5C 499.5,166.167 499.5,332.833 499.5,499.5C 332.833,499.5 166.167,499.5 -0.5,499.5C -0.5,332.833 -0.5,166.167 -0.5,-0.5 Z"/></g>
<g><path style="opacity:1" fill="#fcfcfc" d="M 181.5,435.5 C 181.5,436.167 181.167,436.5 180.5,436.5C 158.636,427.786 138.97,415.62 121.5,400C 110.637,388.803 99.4708,377.97 88,367.5C 44.4906,316.337 29.4906,257.67 43,191.5C 61.33,125.835 102.163,80.3351 165.5,55C 190.094,46.2008 215.427,42.5342 241.5,44C 258.817,46.1099 276.15,48.1099 293.5,50C 312.297,53.5989 330.297,59.5989 347.5,68C 283.395,49.5579 223.728,58.8913 168.5,96C 95.9691,152.24 69.8024,225.407 90,315.5C 105.671,366.98 136.171,406.98 181.5,435.5 Z"/></g>
<g><path style="opacity:1" fill="#5d538c" d="M 265.5,68.5 C 348.835,64.4097 412.002,97.7431 455,168.5C 486.641,231.319 486.307,293.986 454,356.5C 420.238,412.534 370.738,445.034 305.5,454C 222.311,458.994 159.144,426.16 116,355.5C 77.7389,278.872 84.4055,206.538 136,138.5C 170.27,98.7803 213.437,75.447 265.5,68.5 Z"/></g>
<g><path style="opacity:1" fill="#000001" d="M 266.5,104.5 C 335.897,100.109 388.397,127.443 424,186.5C 447.197,233.197 448.53,280.531 428,328.5C 394.3,392.446 341.134,422.279 268.5,418C 213.73,411.042 172.897,383.542 146,335.5C 117.953,277.437 121.953,221.771 158,168.5C 185.404,132.379 221.571,111.046 266.5,104.5 Z"/></g>
<g><path style="opacity:1" fill="#fcfcfc" d="M 333.5,122.5 C 334.251,121.427 335.251,121.26 336.5,122C 391.292,144.466 423.459,184.966 433,243.5C 437.734,308.871 412.234,358.371 356.5,392C 317.853,411.451 277.853,414.784 236.5,402C 229.596,399.549 222.93,396.549 216.5,393C 284.313,397.679 335.48,370.845 370,312.5C 391.99,268.163 394.323,222.83 377,176.5C 369.867,160.057 360.367,145.224 348.5,132C 343.782,128.312 338.782,125.145 333.5,122.5 Z"/></g>
<g><path style="opacity:1" fill="#9d9d9d" d="M 181.5,435.5 C 183.807,436.653 186.14,437.82 188.5,439C 185.549,439.022 182.883,438.189 180.5,436.5C 181.167,436.5 181.5,436.167 181.5,435.5 Z"/></g>
</svg>
